<svg width="40" height="40" viewBox="0 0 40 40" fill="none" xmlns="http://www.w3.org/2000/svg">
  <defs>
    <!-- Градиенты для 3D эффекта -->
    <linearGradient id="bgGradient" x1="0%" y1="0%" x2="100%" y2="100%">
      <stop offset="0%" style="stop-color:#4FC3F7;stop-opacity:1" />
      <stop offset="50%" style="stop-color:#2196F3;stop-opacity:1" />
      <stop offset="100%" style="stop-color:#1565C0;stop-opacity:1" />
    </linearGradient>
    
    <linearGradient id="shipGradient" x1="0%" y1="0%" x2="100%" y2="100%">
      <stop offset="0%" style="stop-color:#FFFFFF;stop-opacity:1" />
      <stop offset="100%" style="stop-color:#E3F2FD;stop-opacity:1" />
    </linearGradient>
    
    <linearGradient id="sailGradient" x1="0%" y1="0%" x2="100%" y2="100%">
      <stop offset="0%" style="stop-color:#FFFFFF;stop-opacity:0.9" />
      <stop offset="100%" style="stop-color:#BBDEFB;stop-opacity:0.7" />
    </linearGradient>
    
    <!-- Тени -->
    <filter id="shadow" x="-50%" y="-50%" width="200%" height="200%">
      <feDropShadow dx="1" dy="2" stdDeviation="1" flood-color="#1565C0" flood-opacity="0.3"/>
    </filter>
    
    <filter id="innerShadow" x="-50%" y="-50%" width="200%" height="200%">
      <feOffset dx="0" dy="1"/>
      <feGaussianBlur stdDeviation="1" result="offset-blur"/>
      <feFlood flood-color="#FFFFFF" flood-opacity="0.5"/>
      <feComposite in2="offset-blur" operator="in"/>
    </filter>
  </defs>
  
  <!-- Основной фон с градиентом -->
  <circle cx="20" cy="20" r="19" fill="url(#bgGradient)" filter="url(#shadow)"/>
  
  <!-- Внутренний круг для глубины -->
  <circle cx="20" cy="20" r="17" fill="none" stroke="rgba(255,255,255,0.2)" stroke-width="0.5"/>
  
  <!-- Корпус корабля с 3D эффектом -->
  <path d="M11 23 L20 16 L29 23 L27 29 L13 29 Z" fill="url(#shipGradient)" filter="url(#shadow)"/>
  
  <!-- Тень корпуса -->
  <path d="M12 24 L20 17 L28 24 L26 29 L14 29 Z" fill="rgba(0,0,0,0.1)"/>
  
  <!-- Основной корпус -->
  <path d="M11.5 23 L20 16.5 L28.5 23 L26.5 28.5 L13.5 28.5 Z" fill="url(#shipGradient)"/>
  
  <!-- Мачта с градиентом -->
  <rect x="19.5" y="8" width="1" height="14" fill="url(#shipGradient)"/>
  
  <!-- Парус с 3D эффектом -->
  <path d="M21 10 L21 18 L28 16 L28 12 Z" fill="url(#sailGradient)" filter="url(#shadow)"/>
  
  <!-- Блик на парусе -->
  <path d="M21.5 10.5 L21.5 17 L24 16 L24 12.5 Z" fill="rgba(255,255,255,0.4)"/>
  
  <!-- Волны с градиентом -->
  <path d="M7 30 Q11 28 15 30 T23 30 T31 30" stroke="rgba(255,255,255,0.8)" stroke-width="2" fill="none"/>
  <path d="M5 32 Q9 30 13 32 T21 32 T29 32" stroke="rgba(255,255,255,0.6)" stroke-width="1.5" fill="none"/>
  <path d="M9 34 Q13 32 17 34 T25 34 T33 34" stroke="rgba(255,255,255,0.4)" stroke-width="1" fill="none"/>
  
  <!-- Якорь для детализации -->
  <path d="M15 26 L15 24 M15 25 L13 23 M15 25 L17 23" stroke="rgba(255,255,255,0.6)" stroke-width="0.8" fill="none"/>
  
  <!-- Флаг на мачте -->
  <path d="M21 9 L21 11 L24 10.5 Z" fill="#FF4444"/>
  
  <!-- Блики для 3D эффекта -->
  <circle cx="16" cy="16" r="1.5" fill="rgba(255,255,255,0.3)"/>
  <circle cx="24" cy="14" r="1" fill="rgba(255,255,255,0.2)"/>
  
  <!-- Внешний ободок -->
  <circle cx="20" cy="20" r="19.5" fill="none" stroke="rgba(255,255,255,0.1)" stroke-width="0.5"/>
</svg>
