<svg width="488" height="603" viewBox="0 0 488 603" fill="none" xmlns="http://www.w3.org/2000/svg">
<path d="M255.5 3.5H232.5L216.24 19.76V42.76L232.5 59.02H255.5L271.76 42.76V19.76L255.5 3.5Z" stroke="#005493" stroke-width="5.51" stroke-miterlimit="10"/>
<path d="M244 47.37C252.897 47.37 260.11 40.1573 260.11 31.26C260.11 22.3627 252.897 15.15 244 15.15C235.103 15.15 227.89 22.3627 227.89 31.26C227.89 40.1573 235.103 47.37 244 47.37Z" fill="#005493"/>
<path d="M401.13 83.41H86.87V115.32H401.13V83.41Z" fill="#005493"/>
<path d="M287.73 123.58H200.27H86.87V143.93L220.47 164.59V189.62H267.45V164.55L267.53 164.59L401.13 143.93V123.58H287.73Z" fill="#005493"/>
<path d="M291.86 197.88H277.17V252.97H291.86V226.86L292.66 225.43L291.86 224V197.88Z" fill="#005493"/>
<path d="M322.85 197.88H308.16L300.01 212.37L292.66 225.43L300.01 238.49L308.16 252.97H322.85L307.35 225.43L322.85 197.88Z" fill="#005493"/>
<path d="M258.88 197.88L248.51 220.64L238.14 197.88H223.45L241.17 236.76L233.78 252.97H248.47L248.51 252.89L255.86 236.76L273.57 197.88H258.88Z" fill="#005493"/>
<path d="M200.27 197.88V218.08H179.84V197.88H165.15V252.97H179.84V232.77H200.27V252.97H214.96V197.88H200.27Z" fill="#005493"/>
<path d="M355.11 300.31C347.31 315.79 354.19 315.59 345.93 352.77C337.67 389.95 311.5 388.58 318.84 392.71C326.18 396.84 342.25 435.87 308.74 426.22C257.74 412.91 264.67 266.91 264.67 266.91L244 266.85L223.34 266.93C223.34 266.93 230.23 412.93 179.27 426.24C145.76 435.88 161.82 396.86 169.17 392.73C176.52 388.6 150.35 389.98 142.08 352.79C133.81 315.6 140.7 315.79 132.9 300.33C125.1 284.87 117.29 265.1 84.6899 250.87V472.14C84.6899 472.14 85.1499 499.23 106.27 499.23H203.27C203.437 509.926 207.804 520.127 215.427 527.631C223.05 535.136 233.318 539.342 244.015 539.342C254.712 539.342 264.98 535.136 272.603 527.631C280.226 520.127 284.592 509.926 284.76 499.23H381.76C402.88 499.23 403.34 472.14 403.34 472.14V250.85C370.72 265.09 362.91 284.83 355.11 300.31Z" fill="#005493"/>
<path d="M176.36 440.51H188.65V483.66H180.49V448.23H171.61L176.36 440.51Z" fill="white"/>
<path d="M227.09 442.39C225.106 440.344 222.556 438.938 219.768 438.352C216.979 437.766 214.078 438.027 211.439 439.102C208.8 440.177 206.543 442.017 204.957 444.385C203.371 446.752 202.529 449.54 202.54 452.39C202.49 454.298 202.826 456.196 203.527 457.971C204.228 459.746 205.28 461.361 206.62 462.72C207.892 464.061 209.429 465.124 211.133 465.84C212.837 466.556 214.672 466.91 216.52 466.88L208.52 482.44L215.91 486.11L227.65 463.11C228.806 461.008 229.786 458.813 230.58 456.55C230.999 455.175 231.215 453.747 231.22 452.31C231.226 450.465 230.864 448.637 230.155 446.934C229.446 445.23 228.404 443.686 227.09 442.39V442.39ZM221.09 456.86C220.577 457.428 219.949 457.879 219.246 458.182C218.544 458.486 217.785 458.635 217.02 458.62C216.229 458.641 215.443 458.495 214.712 458.192C213.982 457.888 213.323 457.435 212.78 456.86C211.675 455.651 211.063 454.073 211.063 452.435C211.063 450.797 211.675 449.219 212.78 448.01C213.312 447.441 213.956 446.988 214.673 446.682C215.389 446.375 216.161 446.222 216.94 446.23C217.695 446.234 218.442 446.396 219.131 446.706C219.82 447.016 220.436 447.467 220.94 448.03C222.036 449.235 222.649 450.801 222.664 452.43C222.679 454.058 222.094 455.635 221.02 456.86H221.09Z" fill="white"/>
<path d="M253.53 454.87H245.42C245.64 450.157 247.12 446.447 249.86 443.74C252.209 441.614 255.146 440.248 258.286 439.823C261.426 439.399 264.621 439.934 267.45 441.36C269.491 442.49 271.177 444.166 272.32 446.2C273.492 448.142 274.124 450.362 274.15 452.63C274.066 455.557 273.306 458.425 271.93 461.01C270.457 464.003 267.757 467.54 263.83 471.62L258.93 476.79H274.5V484.48H244.24V480.48L257.76 466.7C260.274 464.33 262.466 461.64 264.28 458.7C265.258 457.043 265.815 455.172 265.9 453.25C265.923 452.476 265.786 451.707 265.497 450.989C265.208 450.271 264.773 449.621 264.22 449.08C263.648 448.528 262.971 448.098 262.228 447.814C261.486 447.53 260.694 447.4 259.9 447.43C259.055 447.414 258.217 447.585 257.446 447.93C256.675 448.276 255.99 448.788 255.44 449.43C254.171 450.955 253.493 452.886 253.53 454.87V454.87Z" fill="white"/>
<path d="M314.47 448.42C313.448 445.486 311.549 442.938 309.03 441.12C306.542 439.487 303.615 438.653 300.64 438.73C298.339 438.645 296.055 439.152 294.007 440.203C291.958 441.253 290.214 442.812 288.94 444.73C286.42 448.397 285.16 454.31 285.16 462.47C285.16 468.31 285.803 472.813 287.09 475.98C288.129 478.817 289.992 481.279 292.44 483.05C294.947 484.668 297.888 485.481 300.87 485.38C303.813 485.495 306.719 484.688 309.18 483.07C311.6 481.224 313.423 478.706 314.42 475.83C315.72 472.543 316.37 467.95 316.37 462.05C316.37 456.15 315.737 451.607 314.47 448.42ZM305.72 474.52C305.268 475.432 304.571 476.2 303.707 476.738C302.844 477.277 301.848 477.565 300.83 477.57C299.754 477.549 298.704 477.239 297.789 476.672C296.874 476.106 296.128 475.304 295.63 474.35C294.297 472.203 293.63 468.32 293.63 462.7C293.529 459.404 293.822 456.107 294.5 452.88C294.838 451.081 295.721 449.43 297.03 448.15C298.09 447.248 299.439 446.758 300.83 446.77C302.923 446.77 304.627 447.88 305.94 450.1C307.253 452.32 307.92 456.35 307.94 462.19C307.933 467.957 307.197 472.067 305.73 474.52H305.72Z" fill="white"/>
<path d="M244 592.13C244 592.13 251.88 579.65 279.23 573.4C306.58 567.15 360.38 557.65 372.57 554.08C384.76 550.51 414.19 546.35 421.02 508.3C427.85 470.25 481.66 183.7 481.66 183.7L339.27 145.95H148.73L6.33997 183.7C6.33997 183.7 60.15 470.25 67 508.3C73.85 546.35 103.26 550.51 115.45 554.08C127.64 557.65 181.45 567.16 208.79 573.4C236.13 579.64 244 592.13 244 592.13Z" stroke="#005493" stroke-width="10.7" stroke-miterlimit="10" stroke-linecap="round"/>
</svg>
